# xmcd
#
# Track frame offsets: 
#        150
#        32928
#        57949
#        93308
#        127673
#        152876
#        182396
#
# Disc length: 2815 seconds
#
# Revision: 0
# Processed by: cddbd v1.5.2PL0 Copyright (c) Steve Scherf et al.
# Submitted via: ExactAudioCopy v1.3
#
DISCID=4e0afd07
DTITLE=Dr. John - Live in Newport, Rhode Island (Live)
DYEAR=2019
DGENRE=Blues
TTITLE0=Iko Iko (Live)
TTITLE1=Candy (Live)
TTITLE2=Carnival de Newport (Live)
TTITLE3=Goodnight Irene (Live)
TTITLE4=Let The Good Times Roll (Live)
TTITLE5=Drawers Trouble (Live)
TTITLE6=Big Chief (Live)
EXTD=
EXTT0=
EXTT1=
EXTT2=
EXTT3=
EXTT4=
EXTT5=
EXTT6=
PLAYORDER=
